<svg width="980" height="720" viewBox="0 0 980 720" fill="none" xmlns="http://www.w3.org/2000/svg">
  <rect width="980" height="720" rx="34" fill="#FDFBF4"/>
  <rect x="64" y="74" width="520" height="360" rx="22" fill="#17201F"/>
  <rect x="96" y="112" width="184" height="20" rx="10" fill="#55C7B8"/>
  <rect x="96" y="160" width="420" height="16" rx="8" fill="#DDE5E1"/>
  <rect x="96" y="194" width="360" height="16" rx="8" fill="#879690"/>
  <rect x="96" y="256" width="110" height="104" rx="14" fill="#EF8D78"/>
  <rect x="226" y="256" width="110" height="104" rx="14" fill="#F5C95B"/>
  <rect x="356" y="256" width="110" height="104" rx="14" fill="#8BB7EF"/>
  <path d="M108 388C168 356 208 364 258 386C318 413 367 413 456 368" stroke="#55C7B8" stroke-width="12" stroke-linecap="round"/>
  <rect x="456" y="162" width="400" height="496" rx="28" fill="#315B8F"/>
  <rect x="500" y="210" width="152" height="18" rx="9" fill="#FDFBF4"/>
  <rect x="500" y="250" width="284" height="12" rx="6" fill="#C9D8EF"/>
  <rect x="500" y="286" width="320" height="150" rx="18" fill="#FDFBF4"/>
  <circle cx="552" cy="361" r="42" fill="#0F766E"/>
  <path d="M628 392H780" stroke="#D8614D" stroke-width="14" stroke-linecap="round"/>
  <path d="M628 342H744" stroke="#17201F" stroke-width="14" stroke-linecap="round"/>
  <rect x="500" y="472" width="320" height="116" rx="18" fill="#17201F"/>
  <rect x="532" y="508" width="72" height="44" rx="12" fill="#55C7B8"/>
  <rect x="626" y="508" width="72" height="44" rx="12" fill="#F5C95B"/>
  <rect x="720" y="508" width="72" height="44" rx="12" fill="#EF8D78"/>
  <rect x="128" y="470" width="282" height="142" rx="22" fill="#0F766E"/>
  <rect x="160" y="510" width="100" height="16" rx="8" fill="#FDFBF4"/>
  <rect x="160" y="548" width="194" height="12" rx="6" fill="#B9E6DF"/>
  <rect x="160" y="580" width="150" height="12" rx="6" fill="#B9E6DF"/>
</svg>
