<?xml version="1.0" encoding="UTF-8" standalone="no"?>
<!--?xml version="1.0" encoding="utf-8"?-->

<!-- Generator: Adobe Illustrator 18.1.1, SVG Export Plug-In . SVG Version: 6.00 Build 0)  -->

<svg
   version="1.1"
   id="_x32_"
   x="0px"
   y="0px"
   viewBox="0 0 260 208"
   style="opacity:1"
   xml:space="preserve"
   sodipodi:docname="table_sc.svg"
   inkscape:version="1.1.2 (b8e25be8, 2022-02-05)"
   width="260"
   height="208"
   xmlns:inkscape="http://www.inkscape.org/namespaces/inkscape"
   xmlns:sodipodi="http://sodipodi.sourceforge.net/DTD/sodipodi-0.dtd"
   xmlns="http://www.w3.org/2000/svg"
   xmlns:svg="http://www.w3.org/2000/svg"><defs
   id="defs833" /><sodipodi:namedview
   id="namedview831"
   pagecolor="#ffffff"
   bordercolor="#666666"
   borderopacity="1.0"
   inkscape:pageshadow="2"
   inkscape:pageopacity="0.0"
   inkscape:pagecheckerboard="0"
   showgrid="false"
   inkscape:zoom="0.6099763"
   inkscape:cx="192.63043"
   inkscape:cy="333.61952"
   inkscape:window-width="1440"
   inkscape:window-height="847"
   inkscape:window-x="0"
   inkscape:window-y="25"
   inkscape:window-maximized="0"
   inkscape:current-layer="_x32_"
   height="410px" />
<style
   type="text/css"
   id="style824">
	.st0{fill:#4B4B4B;}
</style>
<g
   id="g828"
   transform="matrix(0.5078125,0,0,0.42107933,0,26.147877)">
	<path
   class="st0"
   d="M 405.369,78.427 H 106.631 L 0,171.016 v 3.764 52.337 1.163 205.293 H 66.066 V 228.28 h 23.402 v 133.79 h 57.807 V 228.28 h 217.442 v 133.79 h 57.814 V 228.28 h 23.395 V 433.573 H 512 V 228.28 227.117 171.007 Z M 112.792,94.946 H 399.2 l 84.808,73.634 H 27.984 Z M 49.548,417.055 H 16.519 V 228.28 h 33.029 z m 81.209,-71.505 h -24.77 V 228.28 h 24.77 z m 275.257,0 H 381.236 V 228.28 h 24.778 z m 89.468,71.505 H 462.445 V 228.28 h 33.037 z m 0,-205.293 H 16.519 v -30.79 h 478.963 z"
   style="fill:#4b4b4b"
   id="path826" />
</g>
<style
   type="text/css"
   id="style915">
	.st0{fill:#4B4B4B;}
</style><g
   style="opacity:1"
   id="g929"
   transform="matrix(0.23926109,0,0,0.25879026,69.829666,-18.759965)"><g
     id="g919">
	<path
   class="st0"
   d="m 510.163,392.022 -45.59,-57.326 V 93.611 c 0,-11.662 -9.458,-21.12 -21.12,-21.12 H 68.546 c -11.662,0 -21.115,9.458 -21.115,21.12 V 334.696 L 1.837,392.022 C 0.648,393.517 0,395.367 0,397.287 v 25.373 c 0,9.311 7.542,16.849 16.849,16.849 h 478.302 c 9.307,0 16.849,-7.538 16.849,-16.849 v -25.373 c 0,-1.92 -0.644,-3.77 -1.837,-5.265 z M 77.226,102.291 H 434.774 V 304.897 H 77.226 Z M 304.121,419.47 h -96.242 v -25.478 h 96.242 z"
   style="fill:#4b4b4b"
   id="path917" />
</g></g></svg>
